<svg xmlns="http://www.w3.org/2000/svg" xmlns:xlink="http://www.w3.org/1999/xlink" viewBox="3061.68 12623.92 531.76 622.5" width="531.76" height="622.5">
<g><ellipse stroke="#000" stroke-width="5px" stroke-miterlimit="10" cx="3328.849" cy="13135.109" rx="62.504" ry="76.252" transform="matrix(1 0 0 1 0 0)" fill="#000" stroke-linecap="butt" stroke-linejoin="miter"/>
<path fill="#fff" stroke="#000" stroke-width="5px" stroke-linecap="round" stroke-miterlimit="10" d="M3153.88 13209.009 C3153.88 13209.009 3003.6730000000002 13124.238 3092.0150000000003 12969.85 L3105.9660000000003 12945.212 C3130.914 12901.154999999999 3126.4510000000005 12846.011999999999 3093.9260000000004 12807.21 C3093.434 12806.623 3092.934 12806.036999999998 3092.4270000000006 12805.451 C3088.0550000000007 12800.401 3085.428000000001 12794.071999999998 3084.8730000000005 12787.416 L3084.8730000000005 12787.416 C3083.1660000000006 12766.972 3101.0110000000004 12750.303 3121.2920000000004 12753.395999999999 L3121.2920000000004 12753.395999999999 C3129.3610000000003 12754.625999999998 3137.0000000000005 12757.874999999998 3143.4190000000003 12762.917 C3164.3910000000005 12779.386999999999 3205.0110000000004 12822.9 3192.2850000000003 12906.385 C3175.353 13017.472 3153.88 13209.009 3153.88 13209.009 Z" transform="matrix(1 0 0 1 0 0)" stroke-linejoin="miter"/>
<path fill="#fff" stroke="#000" stroke-width="5px" stroke-miterlimit="10" d="M3428.6 13237.194 L3428.6 13237.194 C3438.9139999999998 13240.632 3450.276 13237.252999999999 3457.034 13228.735999999999 L3457.034 13228.735999999999 C3464.9410000000003 13218.770999999999 3470.712 13207.285 3473.9860000000003 13194.992999999999 L3488.0870000000004 13142.051 C3496.8900000000003 13109 3509.5000000000005 13077.082 3525.6630000000005 13046.938 L3556.2030000000004 12989.983 C3605.4250000000006 12898.185 3602.1500000000005 12787.145 3547.6040000000003 12698.409 L3547.6040000000003 12698.408 C3540.5890000000004 12686.997 3534.789 12674.883 3530.2960000000003 12662.261999999999 L3522.6230000000005 12640.707999999999 C3516.0590000000007 12622.269999999999 3490.2740000000003 12621.483999999999 3482.6010000000006 12639.489999999998 L3466.8790000000004 12676.384999999998 C3465.6230000000005 12679.330999999998 3462.7300000000005 12681.242999999999 3459.5270000000005 12681.242999999999 L3450.2260000000006 12681.242999999999 C3446.6010000000006 12681.242999999999 3443.4300000000007 12678.802999999998 3442.5010000000007 12675.298999999999 L3433.2960000000007 12640.577 C3429.174000000001 12625.028999999999 3407.5840000000007 12623.794 3401.716000000001 12638.769999999999 L3393.043000000001 12660.907 C3384.277000000001 12683.282 3370.648000000001 12703.428 3353.141000000001 12719.89 L3348.776000000001 12723.993999999999 C3343.063000000001 12729.365999999998 3338.351000000001 12735.711 3334.8590000000013 12742.731999999998 L3334.8590000000013 12742.731999999998 C3327.1030000000014 12758.325999999997 3325.807000000001 12776.347999999998 3331.253000000001 12792.890999999998 L3335.264000000001 12805.075999999997 C3336.731000000001 12809.530999999997 3334.624000000001 12814.372999999998 3330.3610000000012 12816.328999999998 C3287.5180000000014 12835.992999999999 3076.8510000000015 12941.868999999999 3103.352000000001 13111.580999999998 C3129.476000000001 13278.873999999998 3306.813000000001 13244.054999999998 3346.856000000001 13233.956999999999 C3351.829000000001 13232.702999999998 3355.822000000001 13229.019999999999 3357.4860000000012 13224.168999999998 L3357.4860000000012 13224.168999999998 C3361.3260000000014 13212.968999999997 3357.3900000000012 13200.574999999999 3347.791000000001 13193.642999999998 L3344.936000000001 13191.580999999998 C3335.398000000001 13184.692 3323.3610000000012 13182.230999999998 3311.885000000001 13184.823999999999 L3311.885000000001 13184.823999999999 C3311.885000000001 13184.823999999999 3340.1400000000012 13143.706999999999 3322.7540000000013 13112.337 L3416.6390000000015 13228.884 C3419.748 13232.743 3423.899 13235.628 3428.6 13237.194 Z" transform="matrix(1 0 0 1 0 0)" stroke-linecap="butt" stroke-linejoin="miter"/>
<path fill="#fff" stroke="#000" stroke-width="5px" stroke-linecap="round" stroke-miterlimit="10" d="M3302.723 13086.638 C3302.723 13086.638 3331.828 13122.165 3346 13174.323 C3354.963 13207.311 3372.167 13225.785 3383.602 13234.909 C3389.743 13239.807999999999 3397.565 13242.082 3405.379 13241.27 L3405.379 13241.27 C3415.888 13240.178 3423.755 13231.134 3423.382 13220.576000000001 L3421.806 13176.047 C3421.284 13161.312 3421.849 13146.558 3423.497 13131.906 L3428.2039999999997 13090.04" transform="matrix(1 0 0 1 0 0)" stroke-linejoin="miter"/>
<path stroke="#000" stroke-width="4.1308px" stroke-linecap="round" stroke-miterlimit="10" d="M3364.051 12723.927 L3408.699 12723.996 C3417.3740000000003 12724.009 3421.91 12734.312 3416.064 12740.721 L3403.604 12754.377 C3392.759 12766.263 3373.37 12763.605 3366.125 12749.237000000001 L3358.17 12733.463000000002 C3355.962 12729.085 3359.148 12723.919 3364.051 12723.927 Z" transform="matrix(1 0 0 1 0 0)" fill="#000" stroke-linejoin="miter"/>
<circle stroke="#000" stroke-width="5px" stroke-linecap="round" stroke-miterlimit="10" cx="3474.283" cy="12736.559" r="13.583" transform="matrix(1 0 0 1 0 0)" fill="#000" stroke-linejoin="miter"/>
<path stroke="#000" stroke-width="2px" stroke-linecap="round" stroke-miterlimit="10" d="M3427.739 12774.392 L3438.968 12773.956 C3444.3619999999996 12773.746000000001 3447.844 12779.595 3445.0899999999997 12784.237000000001 L3438.2499999999995 12795.763 C3436.3259999999996 12799.006000000001 3431.6709999999994 12799.117 3429.5939999999996 12795.969000000001 L3422.3209999999995 12784.944000000001 C3419.399 12780.518 3422.438 12774.598 3427.739 12774.392 Z" transform="matrix(1 0 0 1 0 0)" fill="#000" stroke-linejoin="miter"/>
<path fill="none" stroke="#000" stroke-width="5px" stroke-linecap="round" stroke-miterlimit="10" d="M3487.867 12768.779 C3487.867 12768.779 3520.5060000000003 12752.078000000001 3553.347 12754.57" transform="matrix(1 0 0 1 0 0)" stroke-linejoin="miter"/>
<path fill="none" stroke="#000" stroke-width="5px" stroke-linecap="round" stroke-miterlimit="10" d="M3487.867 12793.646 C3487.867 12793.646 3529.277 12780.442000000001 3558.9750000000004 12797.864000000001" transform="matrix(1 0 0 1 0 0)" stroke-linejoin="miter"/>
<path fill="none" stroke="#000" stroke-width="5px" stroke-linecap="round" stroke-miterlimit="10" d="M3327.416 12767.072 C3327.416 12767.072 3295.164 12745.145 3273.9990000000003 12754.316" transform="matrix(1 0 0 1 0 0)" stroke-linejoin="miter"/>
<path fill="none" stroke="#000" stroke-width="5px" stroke-linecap="round" stroke-miterlimit="10" d="M3330.07 12788.854 C3330.07 12788.854 3311.7940000000003 12780.759 3272.487 12786.108" transform="matrix(1 0 0 1 0 0)" stroke-linejoin="miter"/>
<path fill="none" stroke="#000" stroke-width="5px" stroke-linecap="round" stroke-miterlimit="10" d="M3433.755 12792.63 L3433.755 12803.323999999999 C3433.755 12807.605 3435.456 12811.711 3438.483 12814.738 L3438.483 12814.738 C3444.7870000000003 12821.042 3455.0080000000003 12821.042 3461.3120000000004 12814.738 L3463.0640000000003 12812.985999999999" transform="matrix(1 0 0 1 0 0)" stroke-linejoin="miter"/>
<path fill="none" stroke="#000" stroke-width="5px" stroke-linecap="round" stroke-miterlimit="10" d="M3433.484 12790.64 L3433.484 12801.333999999999 C3433.484 12805.615 3431.783 12809.721 3428.756 12812.748 L3428.756 12812.748 C3422.4519999999998 12819.052 3412.2309999999998 12819.052 3405.9269999999997 12812.748 L3404.1749999999997 12810.996" transform="matrix(1 0 0 1 0 0)" stroke-linejoin="miter"/>
<path fill="#fff" stroke="#000" stroke-width="5px" stroke-miterlimit="10" d="M3417.44 12729.184 C3417.44 12729.184 3452.867 12718.622 3459.527 12681.243999999999" transform="matrix(1 0 0 1 0 0)" stroke-linecap="butt" stroke-linejoin="miter"/>
<line fill="#fff" stroke="#000" stroke-width="5px" stroke-miterlimit="10" x1="3358.702" y1="12726.684" x2="3351.832" y2="12721.124" transform="matrix(1 0 0 1 0 0)" stroke-linecap="butt" stroke-linejoin="miter"/>
</g>
</svg>
