<svg xmlns="http://www.w3.org/2000/svg" viewBox="47.36 6656.27 50.08 53.7" width="50.08" height="53.7"><g class="sil"><path d="M1332 4189 c-172 -38 -379 -112 -534 -190 -309 -155 -560 -436 -684
-766 -23 -62 -24 -72 -24 -353 l0 -290 49 -95 c137 -263 328 -437 658 -602
122 -61 134 -69 142 -100 8 -29 -9 -120 -105 -558 l-115 -524 100 -163 99
-163 202 -117 202 -117 151 -31 150 -30 407 0 407 0 219 81 c120 45 230 87
244 94 14 8 66 51 115 97 50 46 117 107 149 135 l57 53 33 170 33 170 -94 402
c-52 222 -94 417 -95 434 0 53 19 74 110 117 327 153 539 343 667 599 l45 90
0 297 c0 287 -1 300 -24 367 -91 265 -251 469 -505 642 -229 157 -520 282
-806 347 l-110 25 -530 -1 c-481 -1 -538 -2 -613 -20z" transform="translate(47.36,6656.27) scale(0.125) translate(0,430) scale(0.1,-0.1)" fill="#fff"/></g><g transform="matrix(0.9999999999999999 0 0 0.9999999999999999 -107.23000335693358 6532.040039062501)"><path d="M164.05,169C164.05,169 166.37,172.8 166.37,172.8M166.37,172.8C166.37,172.8 171.22,175.6 171.22,175.6M171.22,175.6C171.22,175.6 177.83,176.93 177.83,176.93M177.83,176.93C177.83,176.93 184.65,176.46 184.65,176.46M184.65,176.46C184.65,176.46 190.48,174.3 190.48,174.3M190.48,174.3C190.48,174.3 190.43,174.16 190.43,174.16M190.43,174.16C190.43,174.16 190.82,174.16 190.82,174.16M190.82,174.16C190.82,174.16 194.4,170.86 194.4,170.86M194.4,170.86C194.4,170.86 195.18,166.82 195.18,166.82M195.18,166.82C195.18,166.82 192.51,155.32 192.51,155.32M164.05,169C164.05,169 167.12,154.99 167.12,154.99M179.49,157.37C176.07,157.15 172.66,156.94 169.46,155.89C168.67,155.63 167.89,155.32 167.12,154.99C164.67,153.97 162.25,152.82 160.24,151.11C158.81,149.88 157.6,148.37 156.74,146.67C156.25,145.69 155.87,144.64 155.7,143.56C155.41,141.76 155.7,139.86 156.29,138.1C156.86,136.39 157.7,134.81 158.77,133.38C159.78,132.03 160.99,130.81 162.35,129.82C164.03,128.6 165.94,127.73 167.9,127.04C169.9,126.33 171.96,125.82 174.05,125.56C175.77,125.34 177.51,125.29 179.25,125.23M179.49,157.37C182.87,157.21 186.26,157.06 189.51,156.25C190.52,156 191.52,155.69 192.51,155.32C195.15,154.35 197.71,153.03 199.76,151.11C201.08,149.86 202.2,148.35 202.88,146.67C203.28,145.68 203.54,144.63 203.63,143.56C203.78,141.73 203.44,139.86 202.83,138.1C202.23,136.38 201.36,134.76 200.2,133.38C199.01,131.97 197.51,130.81 195.93,129.82C194.09,128.67 192.14,127.74 190.1,127.04C188.02,126.31 185.85,125.82 183.67,125.56C182.2,125.38 180.72,125.31 179.25,125.23M190.43,174.16C190.43,174.16 188.05,156.57 188.05,156.57M194.4,170.86C194.4,170.86 191.35,155.72 191.35,155.72M184.65,176.46C184.65,176.46 183.53,157.14 183.53,157.14M177.83,176.93C177.83,176.93 178.47,157.3 178.47,157.3M171.22,175.6C171.22,175.6 173.55,156.82 173.55,156.82M166.37,172.8C166.37,172.8 169.62,155.94 169.62,155.94M179.49,156.33C176.07,156.11 172.66,155.9 169.46,154.85C168.67,154.59 167.89,154.28 167.12,153.96C164.67,152.94 162.25,151.78 160.24,150.07C158.81,148.84 157.6,147.33 156.74,145.64C156.25,144.65 155.87,143.61 155.7,142.53C155.65,142.22 155.62,141.9 155.6,141.58M179.49,156.33C182.87,156.18 186.26,156.02 189.51,155.22C190.52,154.97 191.52,154.65 192.51,154.29C195.15,153.32 197.71,152 199.76,150.07C201.08,148.82 202.2,147.32 202.88,145.64C203.28,144.65 203.54,143.59 203.63,142.53C203.64,142.4 203.64,142.27 203.65,142.15M190.82,174.16C190.82,174.16 188.3,156.52 188.3,156.52M179.49,155.13C176.07,154.91 172.66,154.69 169.46,153.65C168.67,153.39 167.89,153.08 167.12,152.75C164.67,151.73 162.25,150.58 160.24,148.87C158.81,147.64 157.6,146.13 156.74,144.43C156.25,143.45 155.87,142.4 155.7,141.32C155.68,141.2 155.66,141.08 155.65,140.96M179.49,155.13C182.87,154.97 186.26,154.82 189.51,154.01C190.52,153.76 191.52,153.45 192.51,153.08C195.15,152.11 197.71,150.79 199.76,148.87C201.08,147.62 202.2,146.11 202.88,144.43C203.26,143.5 203.5,142.52 203.61,141.53M199.48,137.82C199.48,131.56 190.53,126.49 179.49,126.49C168.44,126.49 159.49,131.56 159.49,137.82C159.49,144.09 168.44,149.16 179.49,149.16C190.53,149.16 199.48,144.09 199.48,137.82Z" fill="none" fill-rule="evenodd" stroke="#101218" stroke-width="0.25" stroke-linecap="round" stroke-linejoin="round"></path></g></svg>
